<?xml version="1.0" standalone="no"?>
<!DOCTYPE svg PUBLIC "-//W3C//DTD SVG 20010904//EN"
 "http://www.w3.org/TR/2001/REC-SVG-20010904/DTD/svg10.dtd">
<svg version="1.0" xmlns="http://www.w3.org/2000/svg"
 width="698.000000pt" height="698.000000pt" viewBox="0 0 698.000000 698.000000"
 preserveAspectRatio="xMidYMid meet">
<metadata>
Created by potrace 1.14, written by Peter Selinger 2001-2017
</metadata>
<g transform="translate(0.000000,698.000000) scale(0.100000,-0.100000)"
fill="#000000" stroke="none">
<path d="M474 6961 c-2 -2 -4 -132 -4 -288 l0 -283 258 -1 c333 -1 595 -11
642 -24 8 -2 31 -7 50 -10 48 -8 90 -25 91 -39 1 -6 2 -1284 3 -2841 1 -2592
0 -2831 -15 -2842 -9 -7 -27 -14 -40 -17 -13 -3 -35 -7 -49 -11 -79 -17 -249
-26 -600 -30 -173 -2 -321 -4 -327 -4 -10 -1 -13 -65 -13 -287 l0 -285 298 6
c517 11 581 13 592 20 5 3 10 1 10 -5 0 -6 4 -9 9 -6 12 8 199 11 206 4 4 -4
17 -3 29 1 25 9 1243 8 1252 -1 3 -4 17 -3 31 3 17 6 22 6 17 -3 -4 -6 -3 -8
3 -5 13 8 44 8 258 3 700 -17 825 -18 826 -4 6 87 2 551 -5 555 -5 3 -180 7
-390 9 -378 3 -517 7 -645 19 -98 9 -182 20 -188 25 -2 2 -6 3 -10 4 -37 9
-53 20 -54 39 -1 12 -3 56 -6 97 -2 41 -6 604 -8 1251 -4 1099 -3 1177 13
1181 45 11 948 -4 1027 -17 144 -24 295 -80 374 -140 58 -44 141 -141 168
-197 29 -61 70 -188 79 -247 2 -14 6 -39 9 -56 18 -116 24 -200 25 -377 1 -87
5 -159 8 -159 4 -1 118 -2 254 -3 158 0 249 3 251 9 2 6 3 674 3 1485 l-1
1475 -240 1 c-132 1 -247 0 -256 -2 -14 -4 -17 -25 -18 -157 -1 -168 -10 -288
-25 -367 -3 -14 -8 -43 -11 -65 -7 -44 -7 -41 -24 -105 -16 -61 -62 -172 -78
-188 -7 -7 -13 -17 -13 -21 0 -14 -97 -108 -145 -141 -109 -75 -281 -130 -425
-136 -47 -2 -85 -4 -85 -4 0 -5 -699 -14 -857 -11 l-36 1 3 1188 c3 653 6
1219 9 1257 2 39 4 80 5 93 1 14 10 26 24 31 21 8 45 12 157 26 208 26 1408
27 1625 1 22 -3 71 -8 110 -11 38 -4 78 -9 89 -11 11 -2 38 -6 61 -10 22 -3
60 -10 85 -16 25 -5 56 -12 70 -14 21 -4 62 -17 130 -42 8 -3 20 -6 26 -7 6
-2 35 -14 66 -29 30 -14 58 -26 63 -26 8 0 129 -78 168 -108 37 -29 141 -135
173 -177 60 -78 142 -232 189 -355 26 -67 77 -222 80 -245 2 -11 8 -32 14 -47
6 -16 8 -28 6 -28 -2 0 -1 -10 4 -23 10 -26 50 -214 57 -266 4 -34 9 -64 19
-111 3 -14 7 -44 10 -67 3 -23 7 -57 10 -75 3 -18 7 -58 10 -88 3 -30 10 -89
17 -131 l11 -75 255 0 254 -1 -6 61 c-6 64 -11 108 -20 173 -3 21 -7 61 -10
88 -4 28 -9 70 -11 95 -6 44 -10 83 -20 173 -11 101 -16 145 -21 187 -10 75
-14 113 -18 165 -2 28 -7 66 -10 85 -3 19 -8 62 -11 95 -3 33 -7 74 -9 90 -3
17 -7 59 -11 95 -3 36 -8 79 -10 95 -2 17 -7 53 -9 80 -3 28 -8 68 -10 90 -11
87 -19 171 -20 198 -1 15 -3 27 -6 27 -3 0 -6 21 -7 48 -2 59 -12 159 -19 192
-3 14 -7 45 -9 70 -3 25 -7 64 -10 88 -3 23 -7 63 -10 90 -7 60 -13 105 -21
162 -4 25 -7 57 -8 72 -1 15 -5 30 -9 34 -8 8 -5715 13 -5723 5z"/>
</g>
</svg>
